<svg width="256" height="256" viewBox="0 0 256 256" fill="none" xmlns="http://www.w3.org/2000/svg">
<path d="M128 248C194.274 248 248 194.274 248 128C248 61.7258 194.274 8 128 8C61.7258 8 8 61.7258 8 128C8 194.274 61.7258 248 128 248Z" fill="#D5E2EB"/>
<path d="M191.613 180.409C191.576 180.434 191.551 180.471 191.526 180.495V185.729C191.526 186.346 191.489 186.951 191.403 187.555C191.243 188.876 190.897 190.172 190.378 191.394L183.923 206.674C183.417 207.847 182.257 208.624 180.974 208.624H168.977C167.631 208.624 166.434 207.773 165.977 206.501L159.571 188.654C158.88 186.741 156.819 185.704 154.869 186.284C143.291 189.715 129.752 188.419 122.988 187.395C120.359 187 117.767 188.284 116.496 190.616L107.572 206.859C107.004 207.871 105.943 208.488 104.795 208.488H90.6749C88.9098 208.488 87.4782 207.057 87.4782 205.292V184.062C87.4782 182.223 86.3303 180.619 84.6393 179.977C84.4542 179.915 84.2567 179.854 84.0469 179.804C59.4482 174.349 46.6982 160.55 46.6982 160.55H44.9578C43.0324 160.55 41.1563 159.883 39.6629 158.649C38.3422 157.575 37.4535 156.057 37.145 154.378L34.5406 140.456C34.2814 139.037 35.2936 137.704 36.7376 137.58L46.6982 136.778L49.5986 131.705C52.4744 126.645 56.5599 122.374 61.4969 119.251L63.7681 117.844L63.8174 117.807C63.336 116.129 62.793 114.536 62.2253 113.068L62.2129 113.018L58.6581 102.046C60.5712 101.601 62.3979 101.342 64.1259 101.219C78.4063 100.231 86.2069 109.167 86.2069 109.167C86.5772 108.884 86.9474 108.612 87.33 108.34C91.2181 105.514 95.3279 102.984 99.5986 100.787C114.397 93.1837 131.159 89.6537 147.76 90.6164C162.546 91.4681 181.887 95.4918 192.699 106.403C212.065 125.941 209.818 160.895 191.613 180.409Z" fill="#094EFF"/>
<path d="M156.236 106.964C155.924 106.964 155.607 106.916 155.295 106.816C152.968 106.072 150.524 105.496 148.028 105.106C140.005 103.845 131.118 104.402 121.612 106.756C119.96 107.161 118.285 106.157 117.875 104.502C117.465 102.848 118.474 101.175 120.129 100.765C130.438 98.2123 140.145 97.6217 148.984 99.0091C151.791 99.449 154.547 100.097 157.175 100.939C158.799 101.458 159.693 103.195 159.174 104.818C158.754 106.128 157.542 106.964 156.236 106.964Z" fill="#0536B5"/>
<path d="M71.5068 124.077C70.9513 124.262 70.3836 124.336 69.8406 124.336C67.5325 124.336 65.3849 122.868 64.6444 120.56L63.7681 117.844L62.2253 113.068L62.2129 113.018L58.6581 102.046C60.5713 101.601 62.3979 101.342 64.1259 101.219L71.5068 124.077Z" fill="#0536B5"/>
<path d="M61.9467 140.422C63.641 140.422 65.0146 139.048 65.0146 137.354C65.0146 135.659 63.641 134.286 61.9467 134.286C60.2523 134.286 58.8788 135.659 58.8788 137.354C58.8788 139.048 60.2523 140.422 61.9467 140.422Z" fill="#0536B5"/>
<path d="M208.374 126.468C207.957 126.468 207.534 126.45 207.107 126.413C201.583 125.949 196.103 122.385 193.468 117.546C192.654 116.049 193.206 114.175 194.703 113.36C196.2 112.549 198.073 113.098 198.889 114.595C200.545 117.64 204.137 119.971 207.624 120.264C209.387 120.413 211.882 120.09 213.749 117.716C215.634 115.316 216.106 111.24 213.58 108.837C212.557 107.863 210.657 107.215 209.143 107.344C208.286 107.413 207.659 107.702 207.281 108.201C207.029 108.535 206.93 109.005 207.012 109.493C207.1 110.023 207.388 110.497 207.782 110.762C207.886 110.831 208.026 110.897 208.173 110.953C208.767 109.98 209.886 109.365 211.092 109.487C212.789 109.644 214.038 111.146 213.881 112.843C213.717 114.62 212.749 116.055 211.226 116.779C208.99 117.841 206.091 117.06 204.342 115.885C202.539 114.675 201.293 112.715 200.925 110.51C200.565 108.355 201.089 106.154 202.363 104.474C203.806 102.57 206.037 101.404 208.643 101.192C211.925 100.939 215.527 102.172 217.832 104.365C222.409 108.716 222.745 116.255 218.6 121.529C216.074 124.742 212.478 126.468 208.374 126.468Z" fill="#0536B5"/>
<path d="M191.613 180.409C191.576 180.434 191.551 180.471 191.526 180.495V185.729C191.526 186.346 191.49 186.951 191.403 187.555C189.144 188.827 186.232 188.333 184.516 186.272L191.613 180.409Z" fill="#0536B5"/>
<path d="M97.3276 182.705C96.6981 185.655 93.7975 187.531 90.8477 186.901L87.4782 186.173V184.063C87.4782 182.223 86.3303 180.619 84.6393 179.977L97.3276 182.705Z" fill="#0536B5"/>
<path d="M140.704 82.2663C152.517 81.0782 161.131 70.5383 159.943 58.7247C158.755 46.9111 148.215 38.2973 136.401 39.4853C124.588 40.6734 115.974 51.2133 117.162 63.0269C118.35 74.8406 128.89 83.4543 140.704 82.2663Z" fill="#FFD766"/>
<path d="M140.153 76.7918C148.943 75.9078 155.352 68.0653 154.469 59.2752C153.585 50.485 145.742 44.0757 136.952 44.9597C128.162 45.8437 121.752 53.6862 122.636 62.4763C123.52 71.2665 131.363 77.6758 140.153 76.7918Z" fill="#FFEC9F"/>
</svg>
