<svg width="20" height="20" viewBox="0 0 20 20" fill="none" xmlns="http://www.w3.org/2000/svg">
<path d="M15.5 16.875H4.5C3.75 16.875 3.125 16.25 3.125 15.5V5.40625C3.125 4.65625 3.625 4.03125 4.28125 4.03125H4.96875V4.9375H4.28125C4.1875 4.9375 4.0625 5.125 4.0625 5.40625V15.5C4.0625 15.75 4.28125 15.9688 4.53125 15.9688H15.5312C15.7812 15.9688 16 15.75 16 15.5V5.40625C16 5.125 15.8438 4.9375 15.7812 4.9375H15.0938V4.03125H15.7812C16.4062 4.03125 16.9375 4.65625 16.9375 5.40625V15.5C16.875 16.25 16.25 16.875 15.5 16.875Z" fill="black"/>
<path d="M6.34375 5.875C6.09375 5.875 5.875 5.65625 5.875 5.40625V3.5625C5.875 3.3125 6.09375 3.09375 6.34375 3.09375C6.59375 3.09375 6.8125 3.3125 6.8125 3.5625V5.40625C6.78125 5.65625 6.59375 5.875 6.34375 5.875Z" fill="black"/>
<path d="M13.6562 5.875C13.4062 5.875 13.1875 5.65625 13.1875 5.40625V3.5625C13.1875 3.3125 13.4062 3.09375 13.6562 3.09375C13.9062 3.09375 14.125 3.3125 14.125 3.5625V5.40625C14.125 5.65625 13.9062 5.875 13.6562 5.875Z" fill="black"/>
<path d="M7.71875 4.03125H12.2812V4.96875H7.71875V4.03125Z" fill="black"/>
<path d="M4.03125 6.78125H15.9688V7.71875H4.03125V6.78125Z" fill="black"/>
<path d="M14.125 8.625H15.0313V9.53125H14.125V8.625Z" fill="black"/>
<path d="M12.2812 8.625H13.2188V9.53125H12.2812V8.625Z" fill="black"/>
<path d="M10.4688 8.625H11.375V9.53125H10.4688V8.625Z" fill="black"/>
<path d="M8.625 8.625H9.53125V9.53125H8.625V8.625Z" fill="black"/>
<path d="M6.78125 8.625H7.71875V9.53125H6.78125V8.625Z" fill="black"/>
<path d="M14.125 10.4688H15.0313V11.375H14.125V10.4688Z" fill="black"/>
<path d="M12.2812 10.4688H13.2188V11.375H12.2812V10.4688Z" fill="black"/>
<path d="M10.4688 10.4688H11.375V11.375H10.4688V10.4688Z" fill="black"/>
<path d="M8.625 10.4688H9.53125V11.375H8.625V10.4688Z" fill="black"/>
<path d="M6.78125 10.4688H7.71875V11.375H6.78125V10.4688Z" fill="black"/>
<path d="M4.96875 10.4688H5.875V11.375H4.96875V10.4688Z" fill="black"/>
<path d="M14.125 12.2812H15.0313V13.2188H14.125V12.2812Z" fill="black"/>
<path d="M12.2812 12.2812H13.2188V13.2188H12.2812V12.2812Z" fill="black"/>
<path d="M10.4688 12.2812H11.375V13.2188H10.4688V12.2812Z" fill="black"/>
<path d="M8.625 12.2812H9.53125V13.2188H8.625V12.2812Z" fill="black"/>
<path d="M6.78125 12.2812H7.71875V13.2188H6.78125V12.2812Z" fill="black"/>
<path d="M4.96875 12.2812H5.875V13.2188H4.96875V12.2812Z" fill="black"/>
<path d="M12.2812 14.125H13.2188V15.0312H12.2812V14.125Z" fill="black"/>
<path d="M10.4688 14.125H11.375V15.0312H10.4688V14.125Z" fill="black"/>
<path d="M8.625 14.125H9.53125V15.0312H8.625V14.125Z" fill="black"/>
<path d="M6.78125 14.125H7.71875V15.0312H6.78125V14.125Z" fill="black"/>
<path d="M4.96875 14.125H5.875V15.0312H4.96875V14.125Z" fill="black"/>
</svg>
