<svg width="15" height="15" viewBox="0 0 15 15" fill="none" xmlns="http://www.w3.org/2000/svg">
<path d="M10.4687 7.875H4.53111C4.32404 7.875 4.15611 7.70707 4.15611 7.5C4.15611 7.29293 4.32404 7.125 4.53111 7.125H10.4687C10.6757 7.125 10.8437 7.29293 10.8437 7.5C10.8437 7.70707 10.6757 7.875 10.4687 7.875ZM15 7.5C15 3.36445 11.6355 0 7.5 0C3.36445 0 0 3.36445 0 7.5C0 11.6355 3.36445 15 7.5 15C11.6355 15 15 11.6355 15 7.5ZM14.2499 7.5C14.2499 11.2219 11.2219 14.25 7.5 14.25C3.77801 14.25 0.75 11.2219 0.75 7.5C0.75 3.77801 3.77801 0.75 7.5 0.75C11.2219 0.75 14.2499 3.77801 14.2499 7.5Z" fill="current"/>
</svg>
