<svg width="15" height="14" viewBox="0 0 15 14" fill="none" xmlns="http://www.w3.org/2000/svg">
<path d="M13.5604 6.625C13.5604 6.41789 13.7283 6.25 13.9354 6.25C14.1425 6.25 14.3104 6.41789 14.3104 6.625V11.875C14.3104 12.9105 13.4709 13.75 12.4354 13.75H2.67499C1.63945 13.75 0.799988 12.9105 0.799988 11.875V2.125C0.799988 1.08947 1.63945 0.25 2.67499 0.25H7.9354C8.1425 0.25 8.3104 0.417893 8.3104 0.625C8.3104 0.832107 8.1425 1 7.9354 1H2.67499C2.05367 1 1.54999 1.50368 1.54999 2.125V11.875C1.54999 12.4963 2.05367 13 2.67499 13H12.4354C13.0567 13 13.5604 12.4963 13.5604 11.875V6.625ZM12.7006 0.359835L14.2006 1.85984C14.347 2.00628 14.347 2.24372 14.2006 2.39016L8.20056 8.39017C8.13023 8.46049 8.03485 8.5 7.9354 8.5H6.4354C6.22829 8.5 6.0604 8.33211 6.0604 8.125V6.625C6.0604 6.52554 6.0999 6.43016 6.17023 6.35983L12.1702 0.359835C12.3167 0.213388 12.5541 0.213388 12.7006 0.359835ZM12.4354 1.15533L6.8104 6.78033V7.75H7.78007L13.4051 2.125L12.4354 1.15533Z" fill="black"/>
</svg>
