<svg width="22" height="23" viewBox="0 0 22 23" fill="none" xmlns="http://www.w3.org/2000/svg">
<path d="M22.0762 11.9806L17.3183 16.7384C17.1908 16.8656 17.018 16.937 16.8379 16.9369C16.6578 16.9368 16.4851 16.8652 16.3577 16.7378C16.2304 16.6105 16.1588 16.4378 16.1587 16.2577C16.1585 16.0776 16.2299 15.9048 16.3571 15.7773L19.9546 12.1797H8.90466C8.7244 12.1797 8.55152 12.1081 8.42405 11.9806C8.29659 11.8531 8.22498 11.6803 8.22498 11.5C8.22498 11.3197 8.29659 11.1469 8.42405 11.0194C8.55152 10.8919 8.7244 10.8203 8.90466 10.8203H19.9546L16.3571 7.22275C16.2939 7.15966 16.2437 7.08473 16.2094 7.00223C16.1752 6.91974 16.1575 6.8313 16.1575 6.74198C16.1574 6.65266 16.175 6.5642 16.2092 6.48167C16.2433 6.39913 16.2934 6.32415 16.3566 6.26099C16.4197 6.19783 16.4947 6.14774 16.5773 6.11359C16.6598 6.07944 16.7483 6.06189 16.8376 6.06195C16.9269 6.06201 17.0154 6.07968 17.0978 6.11394C17.1803 6.1482 17.2553 6.19839 17.3183 6.26163L22.0762 11.0194C22.2036 11.1469 22.2752 11.3198 22.2752 11.5C22.2752 11.6802 22.2036 11.8531 22.0762 11.9806ZM10.7172 20.7891H2.56091C2.50085 20.789 2.44327 20.7651 2.4008 20.7226C2.35832 20.6801 2.33443 20.6226 2.33435 20.5625V2.4375C2.33443 2.37744 2.35832 2.31985 2.4008 2.27738C2.44327 2.23491 2.50085 2.21102 2.56091 2.21094H10.7172C10.8974 2.21094 11.0703 2.13933 11.1978 2.01186C11.3252 1.8844 11.3968 1.71151 11.3968 1.53125C11.3968 1.35099 11.3252 1.1781 11.1978 1.05064C11.0703 0.923172 10.8974 0.851563 10.7172 0.851562H2.56091C2.14044 0.852034 1.73733 1.01927 1.44001 1.31659C1.14269 1.61391 0.975447 2.01703 0.974976 2.4375V20.5625C0.975447 20.983 1.14269 21.3861 1.44001 21.6834C1.73733 21.9807 2.14044 22.148 2.56091 22.1484H10.7172C10.8974 22.1484 11.0703 22.0768 11.1978 21.9494C11.3252 21.8219 11.3968 21.649 11.3968 21.4688C11.3968 21.2885 11.3252 21.1156 11.1978 20.9881C11.0703 20.8607 10.8974 20.7891 10.7172 20.7891Z" fill="current"/>
</svg>
